<svg width="338" height="338" viewBox="0 0 338 338" fill="none" xmlns="http://www.w3.org/2000/svg">
<rect width="338" height="338" fill="black"/>
<path d="M69.4051 196L54.3607 143.421H66.5041L75.2073 179.954H75.6437L85.2455 143.421H95.6431L105.219 180.031H105.681L114.385 143.421H126.528L111.483 196H100.649L90.6368 161.624H90.2261L80.2392 196H69.4051ZM141.783 196L126.738 143.421H138.882L147.585 179.954H148.021L157.623 143.421H168.021L177.597 180.031H178.059L186.762 143.421H198.905L183.861 196H173.027L163.014 161.624H162.604L152.617 196H141.783ZM214.16 196L199.116 143.421H211.259L219.962 179.954H220.399L230 143.421H240.398L249.974 180.031H250.436L259.14 143.421H271.283L256.238 196H245.404L235.392 161.624H234.981L224.994 196H214.16ZM273.9 196.668C272.206 196.668 270.751 196.068 269.536 194.87C268.338 193.655 267.739 192.2 267.739 190.506C267.739 188.829 268.338 187.391 269.536 186.193C270.751 184.995 272.206 184.396 273.9 184.396C275.543 184.396 276.981 184.995 278.213 186.193C279.445 187.391 280.062 188.829 280.062 190.506C280.062 191.636 279.771 192.671 279.189 193.612C278.624 194.537 277.879 195.281 276.955 195.846C276.031 196.394 275.013 196.668 273.9 196.668Z" fill="white"/>
</svg>
