<svg width="704" height="87" viewBox="0 0 704 87" fill="none" xmlns="http://www.w3.org/2000/svg">
<rect y="9.5" width="146" height="68" rx="10" fill="white"/>
<path d="M18.9179 57.5L10.7397 28.9182H17.3408L22.0719 48.7775H22.3092L27.5287 28.9182H33.1809L38.3864 48.8194H38.6376L43.3687 28.9182H49.9699L41.7917 57.5H35.9023L30.4594 38.813H30.2362L24.8073 57.5H18.9179ZM58.2624 57.5L50.0842 28.9182H56.6854L61.4164 48.7775H61.6537L66.8732 28.9182H72.5254L77.731 48.8194H77.9822L82.7132 28.9182H89.3144L81.1362 57.5H75.2468L69.804 38.813H69.5807L64.1518 57.5H58.2624ZM97.6069 57.5L89.4287 28.9182H96.0299L100.761 48.7775H100.998L106.218 28.9182H111.87L117.075 48.8194H117.327L122.058 28.9182H128.659L120.481 57.5H114.591L109.148 38.813H108.925L103.496 57.5H97.6069ZM130.082 57.8629C129.161 57.8629 128.37 57.5372 127.709 56.8859C127.058 56.2254 126.732 55.4345 126.732 54.5134C126.732 53.6016 127.058 52.8201 127.709 52.1688C128.37 51.5175 129.161 51.1919 130.082 51.1919C130.975 51.1919 131.756 51.5175 132.426 52.1688C133.096 52.8201 133.431 53.6016 133.431 54.5134C133.431 55.1275 133.273 55.6904 132.957 56.2021C132.649 56.7045 132.245 57.1092 131.742 57.4163C131.24 57.714 130.686 57.8629 130.082 57.8629Z" fill="black"/>
<path d="M183.209 70H164.57V17.4214H183.363C188.651 17.4214 193.204 18.474 197.021 20.5792C200.837 22.6673 203.773 25.671 205.827 29.5905C207.898 33.5099 208.933 38.1995 208.933 43.6593C208.933 49.1363 207.898 53.843 205.827 57.7796C203.773 61.7161 200.82 64.737 196.969 66.8422C193.135 68.9474 188.549 70 183.209 70ZM175.686 60.4753H182.746C186.033 60.4753 188.797 59.8933 191.039 58.7295C193.298 57.5485 194.993 55.7257 196.122 53.2611C197.269 50.7794 197.842 47.5788 197.842 43.6593C197.842 39.7741 197.269 36.5992 196.122 34.1346C194.993 31.67 193.307 29.8557 191.065 28.6919C188.822 27.528 186.058 26.9461 182.772 26.9461H175.686V60.4753ZM232.249 70.7702C228.261 70.7702 224.812 69.923 221.903 68.2286C219.01 66.517 216.777 64.138 215.202 61.0914C213.628 58.0278 212.84 54.4763 212.84 50.4371C212.84 46.3636 213.628 42.8036 215.202 39.757C216.777 36.6934 219.01 34.3143 221.903 32.6199C224.812 30.9083 228.261 30.0526 232.249 30.0526C236.237 30.0526 239.677 30.9083 242.57 32.6199C245.479 34.3143 247.721 36.6934 249.296 39.757C250.871 42.8036 251.658 46.3636 251.658 50.4371C251.658 54.4763 250.871 58.0278 249.296 61.0914C247.721 64.138 245.479 66.517 242.57 68.2286C239.677 69.923 236.237 70.7702 232.249 70.7702ZM232.3 62.2981C234.115 62.2981 235.629 61.7846 236.845 60.7577C238.06 59.7136 238.976 58.293 239.592 56.4959C240.225 54.6988 240.542 52.6535 240.542 50.36C240.542 48.0666 240.225 46.0213 239.592 44.2242C238.976 42.427 238.06 41.0064 236.845 39.9624C235.629 38.9184 234.115 38.3963 232.3 38.3963C230.469 38.3963 228.929 38.9184 227.679 39.9624C226.447 41.0064 225.514 42.427 224.881 44.2242C224.265 46.0213 223.957 48.0666 223.957 50.36C223.957 52.6535 224.265 54.6988 224.881 56.4959C225.514 58.293 226.447 59.7136 227.679 60.7577C228.929 61.7846 230.469 62.2981 232.3 62.2981ZM256.239 70V30.566H266.662V37.5235H267.125C267.946 35.2129 269.315 33.3901 271.232 32.0551C273.149 30.7201 275.443 30.0526 278.113 30.0526C280.817 30.0526 283.119 30.7286 285.019 32.0807C286.919 33.4158 288.185 35.23 288.818 37.5235H289.229C290.034 35.2642 291.488 33.4585 293.594 32.1064C295.716 30.7372 298.223 30.0526 301.116 30.0526C304.796 30.0526 307.782 31.225 310.076 33.5698C312.386 35.8975 313.542 39.2008 313.542 43.4796V70H302.631V45.6362C302.631 43.4454 302.049 41.8023 300.885 40.7069C299.721 39.6115 298.266 39.0638 296.52 39.0638C294.535 39.0638 292.986 39.6971 291.874 40.9637C290.761 42.2131 290.205 43.8647 290.205 45.9186V70H279.602V45.4051C279.602 43.4711 279.045 41.9307 277.933 40.7839C276.838 39.6372 275.391 39.0638 273.594 39.0638C272.379 39.0638 271.284 39.3719 270.308 39.9881C269.35 40.5871 268.588 41.4343 268.023 42.5297C267.458 43.608 267.176 44.8745 267.176 46.3293V70H256.239ZM330.895 70.7445C328.379 70.7445 326.137 70.3081 324.169 69.4352C322.201 68.5452 320.643 67.2359 319.496 65.5072C318.367 63.7614 317.802 61.5878 317.802 58.9862C317.802 56.7954 318.204 54.9555 319.008 53.4665C319.813 51.9774 320.908 50.7794 322.295 49.8722C323.681 48.9651 325.256 48.2805 327.019 47.8184C328.799 47.3563 330.664 47.0311 332.615 46.8428C334.909 46.6032 336.757 46.3807 338.161 46.1753C339.564 45.9528 340.583 45.6276 341.216 45.1997C341.849 44.7718 342.166 44.1386 342.166 43.2999V43.1459C342.166 41.5199 341.652 40.2619 340.625 39.3719C339.615 38.4819 338.178 38.0369 336.312 38.0369C334.344 38.0369 332.778 38.4734 331.614 39.3463C330.45 40.202 329.68 41.2803 329.303 42.5811L319.188 41.7595C319.702 39.3634 320.711 37.2924 322.218 35.5466C323.724 33.7837 325.666 32.4316 328.045 31.4903C330.442 30.5318 333.214 30.0526 336.364 30.0526C338.554 30.0526 340.651 30.3093 342.653 30.8228C344.673 31.3362 346.462 32.1321 348.019 33.2104C349.594 34.2886 350.835 35.675 351.742 37.3694C352.649 39.0467 353.102 41.0578 353.102 43.4026V70H342.73V64.5316H342.422C341.789 65.7639 340.942 66.8508 339.881 67.7921C338.82 68.7163 337.545 69.4437 336.055 69.9743C334.566 70.4878 332.846 70.7445 330.895 70.7445ZM334.027 63.1966C335.636 63.1966 337.057 62.88 338.289 62.2467C339.521 61.5963 340.488 60.7234 341.19 59.628C341.892 58.5327 342.243 57.2918 342.243 55.9054V51.7207C341.9 51.9432 341.43 52.1486 340.831 52.3369C340.249 52.508 339.59 52.6706 338.854 52.8247C338.118 52.9616 337.382 53.0899 336.646 53.2098C335.91 53.3124 335.242 53.4066 334.643 53.4922C333.36 53.6804 332.239 53.9799 331.28 54.3907C330.322 54.8015 329.577 55.3577 329.047 56.0595C328.516 56.7441 328.251 57.5999 328.251 58.6268C328.251 60.1158 328.79 61.254 329.868 62.0413C330.964 62.8115 332.35 63.1966 334.027 63.1966ZM359.057 70V30.566H369.994V70H359.057ZM364.551 25.4827C362.925 25.4827 361.53 24.9436 360.366 23.8653C359.22 22.7699 358.646 21.4606 358.646 19.9373C358.646 18.4312 359.22 17.139 360.366 16.0607C361.53 14.9653 362.925 14.4176 364.551 14.4176C366.177 14.4176 367.563 14.9653 368.71 16.0607C369.874 17.139 370.456 18.4312 370.456 19.9373C370.456 21.4606 369.874 22.7699 368.71 23.8653C367.563 24.9436 366.177 25.4827 364.551 25.4827ZM387.161 47.2022V70H376.224V30.566H386.648V37.5235H387.11C387.983 35.23 389.446 33.4158 391.5 32.0807C393.554 30.7286 396.044 30.0526 398.971 30.0526C401.709 30.0526 404.097 30.6516 406.134 31.8497C408.17 33.0478 409.754 34.7593 410.883 36.9843C412.013 39.1922 412.578 41.828 412.578 44.8917V70H401.641V46.8428C401.658 44.4295 401.042 42.5468 399.792 41.1947C398.543 39.8255 396.823 39.1409 394.632 39.1409C393.16 39.1409 391.859 39.4575 390.73 40.0908C389.617 40.724 388.744 41.6483 388.111 42.8635C387.495 44.0616 387.178 45.5078 387.161 47.2022ZM451.477 41.8109L441.465 42.427C441.294 41.5713 440.926 40.8011 440.361 40.1164C439.796 39.4147 439.052 38.8585 438.127 38.4477C437.22 38.0198 436.133 37.8059 434.867 37.8059C433.172 37.8059 431.743 38.1653 430.579 38.8841C429.416 39.5859 428.834 40.5272 428.834 41.7082C428.834 42.6495 429.21 43.4454 429.963 44.0958C430.716 44.7462 432.009 45.2682 433.84 45.6618L440.977 47.0995C444.811 47.8869 447.669 49.1534 449.552 50.8992C451.435 52.6449 452.376 54.9384 452.376 57.7796C452.376 60.364 451.614 62.6318 450.091 64.583C448.585 66.5341 446.514 68.0574 443.878 69.1528C441.259 70.2311 438.239 70.7702 434.815 70.7702C429.595 70.7702 425.436 69.6834 422.338 67.5097C419.258 65.3189 417.452 62.3408 416.921 58.5754L427.678 58.0106C428.004 59.6024 428.791 60.8176 430.04 61.6562C431.29 62.4778 432.89 62.8885 434.841 62.8885C436.758 62.8885 438.298 62.5206 439.462 61.7846C440.643 61.0315 441.242 60.0645 441.259 58.8835C441.242 57.8908 440.823 57.0778 440.001 56.4446C439.18 55.7942 437.913 55.2978 436.202 54.9555L429.373 53.5949C425.522 52.8247 422.655 51.4897 420.772 49.5898C418.907 47.69 417.974 45.2682 417.974 42.3243C417.974 39.7913 418.659 37.609 420.028 35.7777C421.414 33.9463 423.357 32.5343 425.856 31.5416C428.372 30.5489 431.315 30.0526 434.687 30.0526C439.668 30.0526 443.587 31.1052 446.445 33.2104C449.321 35.3156 450.998 38.1824 451.477 41.8109ZM471.14 70V17.4214H491.884C495.872 17.4214 499.269 18.183 502.076 19.7063C504.883 21.2124 507.022 23.3091 508.494 25.9962C509.983 28.6662 510.728 31.747 510.728 35.2385C510.728 38.7301 509.975 41.8109 508.469 44.4809C506.963 47.1509 504.78 49.2304 501.922 50.7195C499.081 52.2085 495.641 52.953 491.601 52.953H478.38V44.0444H489.804C491.944 44.0444 493.707 43.6765 495.093 42.9405C496.496 42.1874 497.54 41.1519 498.225 39.834C498.927 38.499 499.278 36.9672 499.278 35.2385C499.278 33.4928 498.927 31.9695 498.225 30.6687C497.54 29.3508 496.496 28.3325 495.093 27.6136C493.69 26.8777 491.91 26.5097 489.753 26.5097H482.256V70H471.14ZM515.213 70V30.566H525.816V37.4464H526.227C526.945 34.9989 528.152 33.1505 529.846 31.901C531.541 30.6345 533.492 30.0012 535.7 30.0012C536.248 30.0012 536.838 30.0355 537.471 30.1039C538.105 30.1724 538.661 30.2665 539.14 30.3863V40.0908C538.627 39.9367 537.916 39.7998 537.009 39.68C536.102 39.5602 535.272 39.5003 534.519 39.5003C532.91 39.5003 531.472 39.8512 530.206 40.5529C528.956 41.2375 527.964 42.196 527.228 43.4283C526.509 44.6606 526.15 46.0812 526.15 47.69V70H515.213ZM558.246 70.7702C554.258 70.7702 550.809 69.923 547.9 68.2286C545.007 66.517 542.773 64.138 541.199 61.0914C539.624 58.0278 538.837 54.4763 538.837 50.4371C538.837 46.3636 539.624 42.8036 541.199 39.757C542.773 36.6934 545.007 34.3143 547.9 32.6199C550.809 30.9083 554.258 30.0526 558.246 30.0526C562.234 30.0526 565.674 30.9083 568.566 32.6199C571.476 34.3143 573.718 36.6934 575.293 39.757C576.867 42.8036 577.655 46.3636 577.655 50.4371C577.655 54.4763 576.867 58.0278 575.293 61.0914C573.718 64.138 571.476 66.517 568.566 68.2286C565.674 69.923 562.234 70.7702 558.246 70.7702ZM558.297 62.2981C560.111 62.2981 561.626 61.7846 562.841 60.7577C564.057 59.7136 564.972 58.293 565.588 56.4959C566.222 54.6988 566.538 52.6535 566.538 50.36C566.538 48.0666 566.222 46.0213 565.588 44.2242C564.972 42.427 564.057 41.0064 562.841 39.9624C561.626 38.9184 560.111 38.3963 558.297 38.3963C556.466 38.3963 554.925 38.9184 553.676 39.9624C552.444 41.0064 551.511 42.427 550.878 44.2242C550.261 46.0213 549.953 48.0666 549.953 50.36C549.953 52.6535 550.261 54.6988 550.878 56.4959C551.511 58.293 552.444 59.7136 553.676 60.7577C554.925 61.7846 556.466 62.2981 558.297 62.2981ZM582.236 30.566H593.173V71.9512C593.173 74.9977 592.574 77.4623 591.376 79.345C590.177 81.2277 588.457 82.6055 586.215 83.4784C583.99 84.3513 581.329 84.7877 578.231 84.7877C577.854 84.7877 577.495 84.7792 577.153 84.7621C576.793 84.7621 576.417 84.7535 576.023 84.7364V76.1872C576.314 76.2043 576.571 76.2129 576.793 76.2129C576.999 76.23 577.221 76.2386 577.461 76.2386C579.224 76.2386 580.456 75.862 581.158 75.109C581.876 74.373 582.236 73.2605 582.236 71.7714V30.566ZM587.679 25.4827C586.07 25.4827 584.683 24.9436 583.52 23.8653C582.356 22.7699 581.774 21.4606 581.774 19.9373C581.774 18.4312 582.356 17.139 583.52 16.0607C584.683 14.9653 586.07 14.4176 587.679 14.4176C589.322 14.4176 590.717 14.9653 591.863 16.0607C593.027 17.139 593.609 18.4312 593.609 19.9373C593.609 21.4606 593.027 22.7699 591.863 23.8653C590.717 24.9436 589.322 25.4827 587.679 25.4827ZM617.374 70.7702C613.318 70.7702 609.827 69.9487 606.9 68.3056C603.99 66.6454 601.748 64.3006 600.173 61.2711C598.599 58.2246 597.812 54.6218 597.812 50.4627C597.812 46.4064 598.599 42.8464 600.173 39.7827C601.748 36.719 603.965 34.3314 606.823 32.6199C609.698 30.9083 613.07 30.0526 616.938 30.0526C619.54 30.0526 621.961 30.4719 624.204 31.3106C626.463 32.1321 628.431 33.373 630.108 35.0332C631.803 36.6934 633.121 38.7814 634.062 41.2974C635.003 43.7963 635.474 46.723 635.474 50.0776V53.0814H602.176V46.3037H625.179C625.179 44.7291 624.837 43.3341 624.152 42.119C623.468 40.9038 622.518 39.9538 621.302 39.2692C620.104 38.5675 618.709 38.2166 617.118 38.2166C615.458 38.2166 613.986 38.6017 612.702 39.3719C611.435 40.125 610.443 41.1434 609.724 42.427C609.005 43.6936 608.637 45.1056 608.62 46.6631V53.1071C608.62 55.0582 608.979 56.7441 609.698 58.1647C610.434 59.5853 611.47 60.6806 612.805 61.4508C614.14 62.221 615.723 62.6061 617.554 62.6061C618.769 62.6061 619.882 62.435 620.892 62.0927C621.901 61.7504 622.766 61.2369 623.485 60.5523C624.204 59.8677 624.751 59.029 625.128 58.0363L635.243 58.7038C634.73 61.1342 633.677 63.2565 632.085 65.0708C630.511 66.8679 628.474 68.2713 625.975 69.2812C623.493 70.2738 620.626 70.7702 617.374 70.7702ZM657.898 70.7702C653.859 70.7702 650.384 69.9144 647.475 68.2029C644.582 66.4742 642.357 64.0781 640.8 61.0144C639.259 57.9507 638.489 54.425 638.489 50.4371C638.489 46.3978 639.268 42.8549 640.825 39.8084C642.4 36.7447 644.634 34.3571 647.526 32.6456C650.419 30.9169 653.859 30.0526 657.847 30.0526C661.287 30.0526 664.299 30.6773 666.884 31.9267C669.468 33.1761 671.513 34.9305 673.019 37.1897C674.526 39.4489 675.356 42.1018 675.51 45.1484H665.189C664.898 43.1801 664.128 41.5969 662.879 40.3989C661.646 39.1837 660.029 38.5761 658.026 38.5761C656.332 38.5761 654.851 39.0382 653.585 39.9624C652.335 40.8695 651.36 42.196 650.658 43.9417C649.956 45.6875 649.606 47.8013 649.606 50.283C649.606 52.799 649.948 54.9384 650.633 56.7013C651.334 58.4642 652.318 59.8078 653.585 60.732C654.851 61.6562 656.332 62.1183 658.026 62.1183C659.276 62.1183 660.397 61.8616 661.39 61.3481C662.399 60.8347 663.229 60.0902 663.88 59.1146C664.547 58.1219 664.984 56.9324 665.189 55.546H675.51C675.339 58.5583 674.517 61.2112 673.045 63.5047C671.59 65.781 669.579 67.5611 667.012 68.8447C664.445 70.1284 661.407 70.7702 657.898 70.7702ZM700.957 30.566V38.7814H677.209V30.566H700.957ZM682.6 21.1183H693.537V57.8823C693.537 58.8921 693.691 59.6794 693.999 60.2442C694.307 60.7919 694.735 61.177 695.283 61.3995C695.848 61.622 696.498 61.7332 697.234 61.7332C697.748 61.7332 698.261 61.6905 698.775 61.6049C699.288 61.5022 699.682 61.4252 699.956 61.3738L701.676 69.5122C701.128 69.6834 700.358 69.8802 699.365 70.1027C698.372 70.3423 697.166 70.4878 695.745 70.5391C693.109 70.6418 690.799 70.291 688.813 69.4865C686.845 68.6821 685.313 67.4327 684.218 65.7383C683.122 64.0438 682.583 61.9044 682.6 59.32V21.1183Z" fill="white"/>
</svg>
